<svg xmlns="http://www.w3.org/2000/svg" viewBox="0 0 405.544 405.544" width="512" height="512"><path d="M397.995 221.931c.63 6.37-4.43 11.88-10.82 11.88h-213.18c-6.4 0-11.45-5.51-10.82-11.88 1.35-13.54 5-26.42 10.55-38.22 17.33-36.9 53.21-63.37 95.63-67.37 3.7-.35 7.44-.53 11.23-.53 61.16 0 111.45 46.53 117.41 106.12z" fill="#f95428"/><path d="M207.842 221.931c1.35-13.54 5-26.42 10.55-38.22 15.8-33.641 47.021-58.604 84.556-65.784a118.622 118.622 0 0 0-22.363-2.116c-3.79 0-7.53.18-11.23.53-42.42 4-78.3 30.47-95.63 67.37-5.55 11.8-9.2 24.68-10.55 38.22-.63 6.37 4.42 11.88 10.82 11.88h44.667c-6.4 0-11.45-5.51-10.82-11.88z" fill="#e54728"/><path d="M146.745 43.831c52.83 0 98.81 29.29 122.61 72.51-42.42 4-78.3 30.47-95.63 67.37H20.395c-7.59 0-13.59-6.53-12.83-14.08 7.06-70.64 66.68-125.8 139.18-125.8z" fill="#f95428"/><path d="M62.232 169.631C68.38 108.116 114.389 58.347 174.05 46.514a140.52 140.52 0 0 0-27.305-2.683c-72.5 0-132.12 55.16-139.18 125.8-.76 7.55 5.24 14.08 12.83 14.08h54.667c-7.59 0-13.59-6.53-12.83-14.08z" fill="#e54728"/><path d="M204.045 289.821c1.02 4.46 1.5 8.89 1.5 13.24 0 31.55-25.62 58.65-58.8 58.65-37.75 0-65.72-35.09-57.3-71.89 2.95-12.9 5.18-25.94 6.67-39.08a355.56 355.56 0 0 0 2.22-39.58v-27.45h75.39c-5.55 11.8-9.2 24.68-10.55 38.22-.63 6.37 4.42 11.88 10.82 11.88h21.9a350.8 350.8 0 0 0 8.15 56.01z" fill="#f7b239"/><path d="M114.945 289.821c2.95-12.9 5.18-25.94 6.67-39.08a355.56 355.56 0 0 0 2.22-39.58v-27.45h-25.5v27.45c0 13.24-.75 26.46-2.22 39.58a354.375 354.375 0 0 1-6.67 39.08c-8.42 36.8 19.55 71.89 57.3 71.89 4.404 0 8.669-.49 12.764-1.392-31.025-6.819-52.004-37.982-44.564-70.498z" fill="#e09b2d"/><path d="M321.755 310.051c.73 3.21 1.08 6.39 1.08 9.52 0 22.67-18.41 42.14-42.25 42.14-27.13 0-47.23-25.21-41.17-51.66 2.12-9.27 3.72-18.64 4.79-28.08 1.06-9.43 1.59-18.92 1.59-28.44v-19.72h69.58v19.72c0 19.03 2.14 37.98 6.38 56.52z" fill="#f7b239"/><path d="M260.915 310.051c2.12-9.27 3.72-18.64 4.79-28.08 1.06-9.43 1.59-18.92 1.59-28.44v-19.72h-21.5v19.72c0 9.52-.53 19.01-1.59 28.44-1.07 9.44-2.67 18.81-4.79 28.08-6.06 26.45 14.04 51.66 41.17 51.66 3.744 0 7.354-.481 10.779-1.379-21.428-5.582-35.677-27.462-30.449-50.281z" fill="#e09b2d"/><path d="M167.949 336.752a7.499 7.499 0 0 1-4.704-13.345c6.228-5.006 9.799-12.422 9.799-20.345a26.91 26.91 0 0 0-.682-5.995 385.588 385.588 0 0 1-7.234-42.384 7.5 7.5 0 0 1 14.904-1.694 370.83 370.83 0 0 0 6.952 40.732 41.934 41.934 0 0 1 1.06 9.34c0 12.491-5.614 24.168-15.402 32.036a7.466 7.466 0 0 1-4.693 1.655zm65.989-220.348a7.482 7.482 0 0 1-5.693-2.614c-15.075-17.552-35.808-29.961-58.379-34.942a7.5 7.5 0 0 1 3.232-14.648c25.722 5.676 49.348 19.816 66.525 39.816a7.5 7.5 0 0 1-.803 10.576 7.46 7.46 0 0 1-4.882 1.812zm57.723 223.821a7.5 7.5 0 0 1-4.859-13.217c2.179-1.851 3.533-4.7 3.533-7.437 0-.745-.091-1.523-.271-2.313a286.76 286.76 0 0 1-7.019-53.881 7.5 7.5 0 0 1 7.237-7.755c4.12-.136 7.611 3.096 7.754 7.237a271.763 271.763 0 0 0 6.652 51.064c.43 1.888.646 3.786.646 5.648 0 7.124-3.298 14.178-8.823 18.87a7.464 7.464 0 0 1-4.85 1.784zm78.525-123.912a7.504 7.504 0 0 1-7.221-5.49c-4.305-15.461-12.899-29.384-24.852-40.264-10.028-9.128-22.226-15.807-35.274-19.316a7.5 7.5 0 0 1-5.295-9.19 7.5 7.5 0 0 1 9.19-5.295c15.347 4.126 29.689 11.979 41.477 22.708 14.043 12.782 24.142 29.15 29.205 47.333a7.5 7.5 0 0 1-7.23 9.514z" fill="#fff"/><path d="M405.454 221.189c-3.078-30.801-17.431-59.287-40.416-80.209-23.143-21.066-53.136-32.668-84.454-32.668-2.366 0-4.723.074-7.072.206-26.525-44.649-74.654-72.186-126.77-72.186-36.778 0-72 13.625-99.179 38.364C20.57 99.267 3.713 132.717.099 168.881a20.28 20.28 0 0 0 5.14 15.605 20.464 20.464 0 0 0 15.153 6.726h70.44v19.95a349.32 349.32 0 0 1-2.172 38.735 348.293 348.293 0 0 1-6.529 38.252c-4.525 19.778.133 40.222 12.781 56.092 12.648 15.87 31.54 24.971 51.83 24.971 36.558 0 66.3-29.675 66.3-66.15a67 67 0 0 0-1.689-14.914 344.714 344.714 0 0 1-7.364-46.839h34.309v12.225c0 9.187-.521 18.473-1.55 27.596a247.877 247.877 0 0 1-4.646 27.251c-3.398 14.841.096 30.183 9.585 42.091 9.491 11.91 23.668 18.741 38.896 18.741 27.434 0 49.752-22.27 49.752-49.643 0-3.747-.428-7.512-1.271-11.189a246.116 246.116 0 0 1-6.195-54.847v-12.225h64.299a18.437 18.437 0 0 0 13.644-6.054 18.285 18.285 0 0 0 4.642-14.066zM16.365 174.424c-.587-.649-1.542-2.037-1.339-4.046 3.246-32.476 18.387-62.517 42.636-84.59 24.41-22.219 56.046-34.456 89.082-34.456 44.568 0 85.881 22.434 110.304 59.198-22.588 4.296-43.658 14.739-60.917 30.45a125.707 125.707 0 0 0-27.067 35.232H20.393a5.382 5.382 0 0 1-4.028-1.788zm180.367 117.07a51.967 51.967 0 0 1 1.311 11.568c0 28.204-23.013 51.15-51.3 51.15-15.697 0-30.313-7.042-40.1-19.321-9.786-12.278-13.39-28.095-9.889-43.398a363.752 363.752 0 0 0 6.812-39.917 364.671 364.671 0 0 0 2.266-40.415v-19.95h56.678a124.946 124.946 0 0 0-6.797 29.978 18.29 18.29 0 0 0 4.64 14.064 18.434 18.434 0 0 0 13.644 6.054h14.929a360.064 360.064 0 0 0 7.806 50.187zm117.713 20.237c.592 2.581.892 5.218.892 7.838 0 19.102-15.59 34.643-34.752 34.643-10.635 0-20.537-4.771-27.165-13.089-6.628-8.317-9.068-19.031-6.694-29.397a263.112 263.112 0 0 0 4.928-28.912 262.31 262.31 0 0 0 1.645-29.281v-12.225h54.572v12.225c0 19.569 2.212 39.148 6.574 58.198zm75.248-86.543a3.37 3.37 0 0 1-2.522 1.12H173.999a3.37 3.37 0 0 1-2.522-1.12 3.236 3.236 0 0 1-.835-2.508c2.708-27.108 15.347-52.184 35.587-70.608 20.375-18.547 46.782-28.761 74.357-28.761s53.982 10.214 74.357 28.761c20.24 18.424 32.878 43.5 35.587 70.608a3.237 3.237 0 0 1-.837 2.508z" fill="#333"/><circle cx="146.745" cy="68.835" r="7.5" fill="#fff"/><circle cx="280.585" cy="140.811" r="7.5" fill="#fff"/></svg>